<?xml version="1.0" encoding="UTF-8"?>
<!DOCTYPE svg PUBLIC "-//W3C//DTD SVG 1.1//EN" "http://www.w3.org/Graphics/SVG/1.1/DTD/svg11.dtd">
<svg xmlns="http://www.w3.org/2000/svg" version="1.1" width="66px" height="32px" style="shape-rendering:geometricPrecision; text-rendering:geometricPrecision; image-rendering:optimizeQuality; fill-rule:evenodd; clip-rule:evenodd" xmlns:xlink="http://www.w3.org/1999/xlink">
<g><path style="opacity:0.975" fill="#616466" d="M 107.5,155.5 C 107.5,166.5 107.5,177.5 107.5,188.5C 104.5,188.5 101.5,188.5 98.5,188.5C 98.8872,176.779 98.3872,165.113 97,153.5C 92.5912,147.367 87.0912,146.2 80.5,150C 77.7692,152.626 75.9358,155.793 75,159.5C 74.5002,169.494 74.3335,179.494 74.5,189.5C 71.1667,189.5 67.8333,189.5 64.5,189.5C 64.5,165.5 64.5,141.5 64.5,117.5C 67.8333,117.5 71.1667,117.5 74.5,117.5C 74.3336,126.506 74.5002,135.506 75,144.5C 81.9028,138.473 89.7361,136.973 98.5,140C 104.733,143.301 107.733,148.467 107.5,155.5 Z"/></g>
<g><path style="opacity:0.932" fill="#616466" d="M 119.5,117.5 C 125.651,115.844 129.317,118.01 130.5,124C 129.306,130.149 125.639,132.149 119.5,130C 115.565,125.837 115.565,121.67 119.5,117.5 Z"/></g>
<g><path style="opacity:0.972" fill="#616466" d="M 192.5,117.5 C 195.833,117.5 199.167,117.5 202.5,117.5C 202.333,131.504 202.5,145.504 203,159.5C 209.167,153.333 215.333,147.167 221.5,141C 225.871,140.172 230.205,140.339 234.5,141.5C 228.806,147.86 222.806,153.86 216.5,159.5C 223.372,169.263 229.705,179.263 235.5,189.5C 231.486,189.666 227.486,189.499 223.5,189C 218.79,181.747 213.957,174.58 209,167.5C 207.292,169.543 205.292,171.21 203,172.5C 202.501,178.157 202.334,183.824 202.5,189.5C 199.167,189.5 195.833,189.5 192.5,189.5C 192.5,165.5 192.5,141.5 192.5,117.5 Z"/></g>
<g><path style="opacity:0.983" fill="#626466" d="M 34.5,125.5 C 37.8333,125.5 41.1667,125.5 44.5,125.5C 44.5,130.5 44.5,135.5 44.5,140.5C 48.5,140.5 52.5,140.5 56.5,140.5C 56.5,143.5 56.5,146.5 56.5,149.5C 52.5,149.5 48.5,149.5 44.5,149.5C 44.3336,158.173 44.5002,166.84 45,175.5C 47.1101,180.405 50.6101,181.738 55.5,179.5C 55.8545,182.067 56.5212,184.567 57.5,187C 57.3552,187.772 57.0219,188.439 56.5,189C 52.1667,189.667 47.8333,189.667 43.5,189C 38.4487,187.283 35.6154,183.783 35,178.5C 34.5002,168.839 34.3335,159.172 34.5,149.5C 31.8333,149.5 29.1667,149.5 26.5,149.5C 26.5,146.5 26.5,143.5 26.5,140.5C 29.1667,140.5 31.8333,140.5 34.5,140.5C 34.5,135.5 34.5,130.5 34.5,125.5 Z"/></g>
<g><path style="opacity:0.938" fill="#ff0005" d="M 244.5,127.5 C 252.561,127.179 260.561,127.679 268.5,129C 282.08,136.465 285.58,147.299 279,161.5C 276.478,164.022 273.978,166.522 271.5,169C 275.702,175.901 280.035,182.735 284.5,189.5C 280.167,190.833 275.833,190.833 271.5,189.5C 267.803,184.302 264.303,178.969 261,173.5C 259.556,171.845 257.722,171.178 255.5,171.5C 255.5,177.833 255.5,184.167 255.5,190.5C 251.833,190.5 248.167,190.5 244.5,190.5C 244.5,169.5 244.5,148.5 244.5,127.5 Z M 255.5,138.5 C 264.377,137.257 269.71,140.923 271.5,149.5C 269.71,158.077 264.377,161.743 255.5,160.5C 255.5,153.167 255.5,145.833 255.5,138.5 Z"/></g>
<g><path style="opacity:0.932" fill="#ff0006" d="M 285.5,127.5 C 297.167,127.5 308.833,127.5 320.5,127.5C 320.5,131.167 320.5,134.833 320.5,138.5C 312.5,138.5 304.5,138.5 296.5,138.5C 296.5,143.5 296.5,148.5 296.5,153.5C 303.167,153.5 309.833,153.5 316.5,153.5C 316.5,157.167 316.5,160.833 316.5,164.5C 309.833,164.5 303.167,164.5 296.5,164.5C 296.5,169.833 296.5,175.167 296.5,180.5C 304.5,180.5 312.5,180.5 320.5,180.5C 320.5,183.833 320.5,187.167 320.5,190.5C 308.833,190.5 297.167,190.5 285.5,190.5C 285.5,169.5 285.5,148.5 285.5,127.5 Z"/></g>
<g><path style="opacity:0.888" fill="#ff0005" d="M 322.5,127.5 C 330.238,127.144 337.905,127.644 345.5,129C 356.688,133.874 361.188,142.374 359,154.5C 354.805,167.033 345.972,172.699 332.5,171.5C 332.5,177.833 332.5,184.167 332.5,190.5C 328.833,190.5 325.167,190.5 321.5,190.5C 321.179,169.424 321.512,148.424 322.5,127.5 Z M 332.5,138.5 C 343.824,137.326 348.991,142.326 348,153.5C 344.432,159.198 339.265,161.531 332.5,160.5C 332.5,153.167 332.5,145.833 332.5,138.5 Z"/></g>
<g><path style="opacity:0.914" fill="#ff0005" d="M 388.5,127.5 C 410.145,130.315 420.311,142.649 419,164.5C 414.802,184.36 402.635,192.86 382.5,190C 364.724,182.617 357.89,169.45 362,150.5C 366.093,137.233 374.926,129.566 388.5,127.5 Z M 387.5,138.5 C 400.78,139.113 407.78,146.113 408.5,159.5C 407.768,171.566 401.434,178.566 389.5,180.5C 378.162,178.196 372.162,171.196 371.5,159.5C 372.309,148.816 377.643,141.816 387.5,138.5 Z"/></g>
<g><path style="opacity:0.935" fill="#ff0005" d="M 420.5,127.5 C 429.331,126.92 437.998,127.753 446.5,130C 456.839,137.018 460.006,146.518 456,158.5C 453.886,162.948 450.719,166.448 446.5,169C 451.167,176 455.833,183 460.5,190C 456.167,190.667 451.833,190.667 447.5,190C 443.667,184.167 439.833,178.333 436,172.5C 434.301,171.594 432.467,171.261 430.5,171.5C 430.5,177.833 430.5,184.167 430.5,190.5C 427.167,190.5 423.833,190.5 420.5,190.5C 420.5,169.5 420.5,148.5 420.5,127.5 Z M 430.5,138.5 C 439.37,136.93 445.036,140.43 447.5,149C 445.491,158.169 439.824,162.002 430.5,160.5C 430.5,153.167 430.5,145.833 430.5,138.5 Z"/></g>
<g><path style="opacity:0.916" fill="#fe0005" d="M 457.5,127.5 C 471.167,127.5 484.833,127.5 498.5,127.5C 498.5,131.167 498.5,134.833 498.5,138.5C 493.5,138.5 488.5,138.5 483.5,138.5C 483.5,155.833 483.5,173.167 483.5,190.5C 480.167,190.5 476.833,190.5 473.5,190.5C 473.5,173.167 473.5,155.833 473.5,138.5C 468.167,138.5 462.833,138.5 457.5,138.5C 457.5,134.833 457.5,131.167 457.5,127.5 Z"/></g>
<g><path style="opacity:0.901" fill="#ff0005" d="M 516.5,127.5 C 526.269,126.383 532.936,130.383 536.5,139.5C 534.505,142.168 531.838,143.835 528.5,144.5C 526.164,142.178 523.497,140.178 520.5,138.5C 518.167,138.833 516.833,140.167 516.5,142.5C 517.219,144.728 518.552,146.561 520.5,148C 528.117,150.632 534.284,155.132 539,161.5C 543.926,175.069 539.76,184.569 526.5,190C 509.657,191.992 500.99,184.492 500.5,167.5C 503.579,167.74 506.579,167.407 509.5,166.5C 510.299,173.788 514.132,178.455 521,180.5C 531.163,176.699 532.663,170.866 525.5,163C 521.007,160.921 516.674,158.588 512.5,156C 505.06,149.735 503.56,142.235 508,133.5C 510.671,131.098 513.505,129.098 516.5,127.5 Z"/></g>
<g><path style="opacity:0.978" fill="#616466" d="M 149.5,161.5 C 148.507,170.318 148.173,179.318 148.5,188.5C 145.5,188.5 142.5,188.5 139.5,188.5C 139.5,172.5 139.5,156.5 139.5,140.5C 142.5,140.5 145.5,140.5 148.5,140.5C 148.34,142.199 148.506,143.866 149,145.5C 158.723,136.594 168.723,136.261 179,144.5C 180.275,146.717 181.275,149.051 182,151.5C 182.5,164.162 182.667,176.829 182.5,189.5C 179.167,189.5 175.833,189.5 172.5,189.5C 172.96,177.066 172.46,164.733 171,152.5C 163.632,145.57 156.966,146.237 151,154.5C 150.023,156.74 149.523,159.073 149.5,161.5 Z"/></g>
<g><path style="opacity:0.968" fill="#616467" d="M 118.5,140.5 C 121.833,140.5 125.167,140.5 128.5,140.5C 128.5,156.833 128.5,173.167 128.5,189.5C 125.167,189.5 121.833,189.5 118.5,189.5C 118.5,173.167 118.5,156.833 118.5,140.5 Z"/></g>
<g><path style="opacity:0.439" fill="#636365" d="M 107.5,155.5 C 108.495,166.654 108.828,177.988 108.5,189.5C 104.958,189.813 101.625,189.479 98.5,188.5C 101.5,188.5 104.5,188.5 107.5,188.5C 107.5,177.5 107.5,166.5 107.5,155.5 Z"/></g>
<g><path style="opacity:0.439" fill="#636365" d="M 149.5,161.5 C 149.5,170.833 149.5,180.167 149.5,189.5C 145.958,189.813 142.625,189.479 139.5,188.5C 142.5,188.5 145.5,188.5 148.5,188.5C 148.173,179.318 148.507,170.318 149.5,161.5 Z"/></g>
</svg>